<svg xmlns="http://www.w3.org/2000/svg" xmlns:xlink="http://www.w3.org/1999/xlink" width="290" zoomAndPan="magnify" viewBox="0 0 217.5 74.999997" height="100" preserveAspectRatio="xMidYMid meet" version="1.2"><defs><clipPath id="e06a5cb2a9"><path d="M 0 0.0859375 L 217 0.0859375 L 217 74.914062 L 0 74.914062 Z M 0 0.0859375 "/></clipPath><clipPath id="34fef902cb"><path d="M 0 0.0859375 L 57 0.0859375 L 57 57 L 0 57 Z M 0 0.0859375 "/></clipPath><clipPath id="4595bbc92a"><path d="M -14.203125 28.488281 L 28.125 -13.84375 L 70.453125 28.488281 L 28.125 70.816406 Z M -14.203125 28.488281 "/></clipPath><clipPath id="c14fc5b7f9"><path d="M -14.203125 28.488281 L 28.125 -13.84375 L 70.453125 28.488281 L 28.125 70.816406 Z M -14.203125 28.488281 "/></clipPath><clipPath id="698ac188b5"><path d="M 27.382812 28.027344 L 59.398438 28.027344 L 59.398438 60.042969 L 27.382812 60.042969 Z M 27.382812 28.027344 "/></clipPath><clipPath id="0cb9219582"><path d="M 113 61 L 124 61 L 124 74.914062 L 113 74.914062 Z M 113 61 "/></clipPath><clipPath id="1ea3645add"><path d="M 133 61 L 145 61 L 145 74.914062 L 133 74.914062 Z M 133 61 "/></clipPath><clipPath id="b11867e7e9"><path d="M 154 61 L 170 61 L 170 74.914062 L 154 74.914062 Z M 154 61 "/></clipPath><clipPath id="11499ef3ef"><path d="M 180 61 L 189 61 L 189 74.914062 L 180 74.914062 Z M 180 61 "/></clipPath><clipPath id="b38793639d"><path d="M 199 61 L 210 61 L 210 74.914062 L 199 74.914062 Z M 199 61 "/></clipPath></defs><g id="a7a1e4c383"><g clip-rule="nonzero" clip-path="url(#e06a5cb2a9)"><path style=" stroke:none;fill-rule:nonzero;fill:#ffffff;fill-opacity:1;" d="M 0 0.0859375 L 217 0.0859375 L 217 74.914062 L 0 74.914062 Z M 0 0.0859375 "/><path style=" stroke:none;fill-rule:nonzero;fill:#ffffff;fill-opacity:1;" d="M 0 0.0859375 L 217 0.0859375 L 217 74.914062 L 0 74.914062 Z M 0 0.0859375 "/></g><g clip-rule="nonzero" clip-path="url(#34fef902cb)"><g clip-rule="nonzero" clip-path="url(#4595bbc92a)"><g clip-rule="nonzero" clip-path="url(#c14fc5b7f9)"><path style=" stroke:none;fill-rule:nonzero;fill:#148d28;fill-opacity:1;" d="M 47.078125 9.65625 C 47.226562 8.417969 47.101562 7.207031 46.710938 6.019531 C 46.316406 4.835938 45.691406 3.789062 44.835938 2.882812 C 44.347656 2.359375 43.804688 1.910156 43.195312 1.535156 C 42.589844 1.160156 41.945312 0.871094 41.261719 0.664062 C 40.578125 0.460938 39.882812 0.351562 39.167969 0.335938 C 38.457031 0.316406 37.753906 0.394531 37.0625 0.5625 C 35.355469 1.015625 33.84375 1.824219 32.523438 2.992188 L 32.445312 3.066406 C 30.746094 4.769531 29.003906 8.125 28.789062 19.5625 C 28.785156 19.847656 28.78125 20.121094 28.78125 20.414062 C 28.417969 20.574219 28.050781 20.578125 27.6875 20.421875 C 27.683594 20.132812 27.675781 19.84375 27.667969 19.542969 C 27.261719 5.964844 24.3125 3.367188 23.34375 2.511719 C 22.21875 1.519531 20.929688 0.855469 19.46875 0.511719 C 18.777344 0.332031 18.074219 0.246094 17.359375 0.257812 C 16.644531 0.269531 15.945312 0.375 15.261719 0.578125 C 14.574219 0.777344 13.929688 1.070312 13.324219 1.445312 C 12.714844 1.824219 12.171875 2.277344 11.6875 2.804688 C 10.816406 3.714844 10.179688 4.769531 9.777344 5.964844 C 9.375 7.160156 9.25 8.386719 9.402344 9.636719 C 8.160156 9.492188 6.949219 9.613281 5.761719 10.003906 C 4.578125 10.398438 3.53125 11.023438 2.625 11.882812 L 2.5 12.007812 C 2 12.492188 1.570312 13.035156 1.210938 13.632812 C 0.851562 14.234375 0.578125 14.867188 0.382812 15.539062 C 0.191406 16.210938 0.0898438 16.894531 0.078125 17.59375 C 0.0625 18.289062 0.140625 18.976562 0.308594 19.65625 C 0.761719 21.359375 1.570312 22.871094 2.734375 24.195312 C 4.410156 25.917969 7.691406 27.710938 19.300781 27.929688 C 19.59375 27.9375 19.878906 27.9375 20.15625 27.941406 C 20.316406 28.304688 20.320312 28.667969 20.164062 29.03125 C 19.875 29.039062 19.585938 29.042969 19.292969 29.058594 C 5.703125 29.464844 3.113281 32.414062 2.257812 33.382812 C 1.265625 34.503906 0.597656 35.792969 0.257812 37.25 C 0.0820312 37.941406 0 38.640625 0.0117188 39.355469 C 0.0273438 40.070312 0.132812 40.765625 0.335938 41.453125 C 0.539062 42.136719 0.824219 42.78125 1.199219 43.390625 C 1.578125 43.996094 2.023438 44.542969 2.546875 45.027344 C 3.457031 45.902344 4.511719 46.539062 5.707031 46.9375 C 6.902344 47.339844 8.128906 47.464844 9.382812 47.316406 C 9.234375 48.554688 9.355469 49.769531 9.75 50.953125 C 10.140625 52.140625 10.765625 53.183594 11.625 54.09375 C 12.109375 54.613281 12.65625 55.0625 13.261719 55.4375 C 13.867188 55.816406 14.511719 56.105469 15.195312 56.308594 C 15.878906 56.511719 16.578125 56.621094 17.289062 56.640625 C 18.003906 56.65625 18.707031 56.582031 19.398438 56.410156 C 21.101562 55.957031 22.613281 55.144531 23.933594 53.976562 C 25.632812 52.363281 27.449219 49.019531 27.667969 37.410156 C 27.671875 37.121094 27.675781 36.847656 27.675781 36.558594 C 28.039062 36.394531 28.402344 36.394531 28.769531 36.550781 C 28.773438 36.835938 28.777344 37.128906 28.789062 37.425781 C 29.195312 51.003906 32.140625 53.601562 33.113281 54.460938 C 34.238281 55.453125 35.53125 56.121094 36.992188 56.460938 C 37.671875 56.632812 38.359375 56.714844 39.0625 56.703125 C 39.761719 56.695312 40.449219 56.59375 41.125 56.402344 C 41.796875 56.210938 42.433594 55.933594 43.035156 55.574219 C 43.636719 55.210938 44.179688 54.78125 44.664062 54.273438 L 44.769531 54.167969 C 45.644531 53.257812 46.28125 52.207031 46.683594 51.007812 C 47.082031 49.8125 47.210938 48.589844 47.058594 47.335938 C 48.300781 47.484375 49.511719 47.359375 50.699219 46.96875 C 51.882812 46.574219 52.929688 45.949219 53.835938 45.089844 C 54.355469 44.605469 54.804688 44.058594 55.179688 43.453125 C 55.554688 42.847656 55.84375 42.203125 56.050781 41.519531 C 56.253906 40.835938 56.363281 40.136719 56.382812 39.425781 C 56.398438 38.714844 56.324219 38.011719 56.152344 37.320312 C 55.699219 35.617188 54.886719 34.105469 53.71875 32.785156 C 52.042969 31.058594 48.761719 29.269531 37.152344 29.050781 C 36.863281 29.042969 36.585938 29.039062 36.300781 29.039062 C 36.136719 28.675781 36.136719 28.3125 36.292969 27.949219 C 36.578125 27.941406 36.871094 27.9375 37.164062 27.921875 C 50.753906 27.515625 53.339844 24.5625 54.199219 23.597656 C 55.191406 22.476562 55.859375 21.183594 56.203125 19.726562 C 56.378906 19.035156 56.460938 18.332031 56.445312 17.617188 C 56.433594 16.90625 56.328125 16.207031 56.125 15.519531 C 55.921875 14.835938 55.632812 14.191406 55.257812 13.585938 C 54.882812 12.976562 54.433594 12.429688 53.914062 11.945312 C 53.003906 11.070312 51.949219 10.433594 50.753906 10.035156 C 49.554688 9.632812 48.332031 9.507812 47.078125 9.65625 Z M 53.332031 18.886719 L 53.273438 19.097656 C 53.054688 20.054688 52.617188 20.898438 51.964844 21.628906 C 50.296875 23.519531 45.003906 24.703125 37.085938 24.941406 C 36.539062 24.957031 36.023438 24.964844 35.511719 24.972656 C 35.105469 24.976562 34.757812 25.125 34.472656 25.410156 C 34.269531 25.613281 34.089844 25.835938 33.929688 26.074219 C 33.773438 26.3125 33.640625 26.566406 33.53125 26.832031 C 33.421875 27.097656 33.339844 27.371094 33.285156 27.652344 C 33.230469 27.933594 33.203125 28.214844 33.203125 28.503906 C 33.207031 28.789062 33.234375 29.074219 33.292969 29.355469 C 33.347656 29.632812 33.433594 29.90625 33.542969 30.171875 C 33.652344 30.4375 33.789062 30.6875 33.949219 30.925781 C 34.109375 31.164062 34.289062 31.382812 34.492188 31.582031 C 34.816406 31.875 35.195312 32.019531 35.628906 32.019531 C 36.105469 32.023438 36.585938 32.023438 37.09375 32.035156 C 49.042969 32.257812 50.953125 34.21875 51.578125 34.863281 C 52.386719 35.820312 52.953125 36.902344 53.273438 38.113281 C 53.480469 38.992188 53.449219 39.867188 53.179688 40.730469 C 52.90625 41.59375 52.4375 42.328125 51.761719 42.9375 C 51.351562 43.304688 50.894531 43.609375 50.394531 43.847656 C 49.894531 44.085938 49.371094 44.253906 48.824219 44.347656 C 48.28125 44.441406 47.730469 44.457031 47.179688 44.394531 C 46.628906 44.335938 46.097656 44.199219 45.585938 43.988281 C 45.320312 43.902344 45.050781 43.890625 44.777344 43.957031 C 44.503906 44.023438 44.269531 44.15625 44.070312 44.355469 C 43.871094 44.554688 43.742188 44.789062 43.675781 45.0625 C 43.613281 45.335938 43.625 45.605469 43.710938 45.871094 C 43.929688 46.386719 44.070312 46.921875 44.132812 47.480469 C 44.195312 48.035156 44.179688 48.589844 44.082031 49.140625 C 43.984375 49.691406 43.8125 50.21875 43.566406 50.722656 C 43.320312 51.222656 43.003906 51.679688 42.625 52.09375 L 42.5625 52.15625 C 41.953125 52.796875 41.226562 53.242188 40.382812 53.5 C 39.535156 53.753906 38.683594 53.78125 37.824219 53.585938 L 37.621094 53.53125 C 36.664062 53.3125 35.820312 52.875 35.089844 52.222656 C 33.1875 50.546875 32.011719 45.261719 31.777344 37.339844 C 31.761719 36.828125 31.753906 36.339844 31.746094 35.761719 C 31.738281 35.355469 31.589844 35.011719 31.304688 34.726562 C 31.101562 34.523438 30.878906 34.34375 30.640625 34.1875 C 30.402344 34.027344 30.148438 33.894531 29.882812 33.785156 C 29.617188 33.679688 29.34375 33.597656 29.066406 33.542969 C 28.785156 33.488281 28.5 33.460938 28.214844 33.460938 C 27.925781 33.460938 27.644531 33.492188 27.363281 33.546875 C 27.082031 33.605469 26.808594 33.6875 26.542969 33.800781 C 26.28125 33.910156 26.03125 34.046875 25.792969 34.207031 C 25.554688 34.367188 25.335938 34.546875 25.132812 34.75 C 24.84375 35.082031 24.699219 35.464844 24.695312 35.902344 C 24.691406 36.375 24.691406 36.847656 24.679688 37.355469 C 24.457031 49.289062 22.523438 51.203125 21.851562 51.835938 C 20.894531 52.648438 19.8125 53.214844 18.597656 53.53125 C 17.71875 53.726562 16.847656 53.691406 15.984375 53.421875 C 15.125 53.148438 14.386719 52.683594 13.777344 52.019531 C 13.40625 51.605469 13.101562 51.148438 12.863281 50.648438 C 12.621094 50.148438 12.457031 49.628906 12.363281 49.082031 C 12.269531 48.535156 12.253906 47.988281 12.3125 47.4375 C 12.375 46.886719 12.511719 46.355469 12.71875 45.839844 C 12.808594 45.574219 12.816406 45.304688 12.753906 45.03125 C 12.6875 44.757812 12.554688 44.523438 12.355469 44.324219 C 12.15625 44.125 11.921875 43.996094 11.648438 43.929688 C 11.375 43.863281 11.105469 43.875 10.839844 43.960938 C 10.324219 44.179688 9.789062 44.320312 9.234375 44.382812 C 8.675781 44.449219 8.125 44.429688 7.574219 44.335938 C 7.023438 44.238281 6.496094 44.070312 5.992188 43.820312 C 5.492188 43.574219 5.035156 43.261719 4.625 42.882812 C 3.960938 42.273438 3.5 41.542969 3.230469 40.683594 C 2.964844 39.828125 2.929688 38.960938 3.128906 38.085938 L 3.183594 37.875 C 3.40625 36.921875 3.84375 36.078125 4.496094 35.347656 C 6.148438 33.445312 11.453125 32.269531 19.375 32.035156 C 19.917969 32.019531 20.4375 32.007812 20.949219 32 C 21.355469 31.996094 21.699219 31.851562 21.988281 31.5625 C 22.191406 31.359375 22.371094 31.136719 22.527344 30.898438 C 22.6875 30.660156 22.820312 30.410156 22.929688 30.144531 C 23.039062 29.878906 23.121094 29.605469 23.175781 29.324219 C 23.230469 29.042969 23.257812 28.757812 23.257812 28.472656 C 23.253906 28.183594 23.226562 27.902344 23.167969 27.621094 C 23.113281 27.339844 23.027344 27.066406 22.917969 26.800781 C 22.808594 26.539062 22.671875 26.285156 22.511719 26.050781 C 22.351562 25.8125 22.167969 25.589844 21.964844 25.390625 C 21.675781 25.101562 21.328125 24.957031 20.921875 24.957031 C 20.417969 24.957031 19.910156 24.953125 19.367188 24.941406 C 7.421875 24.71875 5.511719 22.757812 4.886719 22.113281 C 4.074219 21.15625 3.507812 20.070312 3.1875 18.855469 C 2.984375 17.972656 3.019531 17.101562 3.289062 16.238281 C 3.558594 15.375 4.027344 14.640625 4.695312 14.03125 C 5.109375 13.664062 5.566406 13.359375 6.066406 13.121094 C 6.566406 12.882812 7.085938 12.714844 7.632812 12.625 C 8.179688 12.53125 8.726562 12.515625 9.277344 12.578125 C 9.824219 12.636719 10.355469 12.773438 10.867188 12.984375 C 11.136719 13.070312 11.40625 13.078125 11.679688 13.015625 C 11.949219 12.949219 12.1875 12.816406 12.382812 12.617188 C 12.582031 12.417969 12.714844 12.183594 12.777344 11.910156 C 12.84375 11.636719 12.832031 11.367188 12.746094 11.101562 C 12.527344 10.585938 12.386719 10.050781 12.324219 9.492188 C 12.261719 8.9375 12.277344 8.382812 12.375 7.832031 C 12.472656 7.277344 12.644531 6.753906 12.894531 6.25 C 13.140625 5.75 13.457031 5.292969 13.835938 4.878906 L 13.898438 4.816406 C 14.507812 4.175781 15.234375 3.730469 16.078125 3.472656 C 16.921875 3.21875 17.777344 3.191406 18.636719 3.386719 L 18.839844 3.441406 C 19.796875 3.664062 20.640625 4.097656 21.371094 4.75 C 23.273438 6.425781 24.449219 11.710938 24.683594 19.632812 C 24.699219 20.144531 24.707031 20.632812 24.714844 21.210938 C 24.722656 21.617188 24.871094 21.960938 25.15625 22.246094 C 25.359375 22.449219 25.582031 22.628906 25.820312 22.785156 C 26.058594 22.945312 26.3125 23.078125 26.578125 23.1875 C 26.839844 23.296875 27.113281 23.378906 27.394531 23.433594 C 27.675781 23.488281 27.960938 23.511719 28.246094 23.511719 C 28.535156 23.511719 28.816406 23.480469 29.097656 23.425781 C 29.378906 23.367188 29.652344 23.285156 29.914062 23.175781 C 30.179688 23.0625 30.429688 22.929688 30.667969 22.769531 C 30.90625 22.609375 31.125 22.425781 31.328125 22.222656 C 31.617188 21.894531 31.761719 21.507812 31.765625 21.070312 C 31.765625 20.597656 31.769531 20.125 31.777344 19.621094 C 32.003906 7.683594 33.953125 5.773438 34.609375 5.136719 C 35.5625 4.324219 36.648438 3.757812 37.859375 3.441406 C 38.738281 3.246094 39.613281 3.28125 40.472656 3.550781 C 41.332031 3.820312 42.070312 4.289062 42.679688 4.953125 C 43.050781 5.367188 43.355469 5.824219 43.59375 6.324219 C 43.835938 6.820312 44 7.34375 44.09375 7.890625 C 44.1875 8.4375 44.203125 8.984375 44.144531 9.535156 C 44.082031 10.085938 43.945312 10.617188 43.738281 11.128906 C 43.648438 11.398438 43.640625 11.667969 43.703125 11.941406 C 43.769531 12.214844 43.902344 12.449219 44.101562 12.648438 C 44.300781 12.847656 44.535156 12.976562 44.808594 13.042969 C 45.082031 13.109375 45.351562 13.097656 45.617188 13.011719 C 46.132812 12.792969 46.667969 12.652344 47.226562 12.589844 C 47.78125 12.523438 48.335938 12.539062 48.886719 12.636719 C 49.4375 12.730469 49.964844 12.902344 50.464844 13.152344 C 50.96875 13.398438 51.425781 13.710938 51.835938 14.089844 C 52.496094 14.699219 52.960938 15.429688 53.230469 16.289062 C 53.496094 17.144531 53.53125 18.011719 53.332031 18.886719 Z M 53.332031 18.886719 "/></g></g></g><g clip-rule="nonzero" clip-path="url(#698ac188b5)"><path style=" stroke:none;fill-rule:nonzero;fill:#ffffff;fill-opacity:1;" d="M 27.382812 28.027344 L 59.398438 28.027344 L 59.398438 60.042969 L 27.382812 60.042969 Z M 27.382812 28.027344 "/></g><g style="fill:#000000;fill-opacity:1;"><g transform="translate(29.377354, 59.174137)"><path style="stroke:none" d="M 15.453125 0.40625 C 12.847656 0.40625 10.550781 -0.132812 8.5625 -1.21875 C 6.582031 -2.300781 5.03125 -3.925781 3.90625 -6.09375 C 2.78125 -8.269531 2.21875 -10.953125 2.21875 -14.140625 C 2.21875 -17.328125 2.78125 -20.003906 3.90625 -22.171875 C 5.03125 -24.347656 6.582031 -25.976562 8.5625 -27.0625 C 10.550781 -28.144531 12.847656 -28.6875 15.453125 -28.6875 C 18.179688 -28.6875 20.492188 -28.15625 22.390625 -27.09375 C 24.296875 -26.03125 25.65625 -24.410156 26.46875 -22.234375 L 22.390625 -19.734375 L 21.90625 -19.75 C 21.300781 -21.21875 20.476562 -22.269531 19.4375 -22.90625 C 18.394531 -23.550781 17.066406 -23.875 15.453125 -23.875 C 13.109375 -23.875 11.273438 -23.097656 9.953125 -21.546875 C 8.640625 -19.992188 7.984375 -17.523438 7.984375 -14.140625 C 7.984375 -10.773438 8.640625 -8.316406 9.953125 -6.765625 C 11.273438 -5.210938 13.109375 -4.4375 15.453125 -4.4375 C 19.128906 -4.4375 21.382812 -6.222656 22.21875 -9.796875 L 22.703125 -9.796875 L 26.8125 -7.640625 C 26.039062 -4.960938 24.71875 -2.953125 22.84375 -1.609375 C 20.976562 -0.265625 18.515625 0.40625 15.453125 0.40625 Z M 15.453125 0.40625 "/></g></g><g style="fill:#000000;fill-opacity:1;"><g transform="translate(63.06051, 59.174137)"><path style="stroke:none" d="M 9.265625 -28.28125 L 9.265625 -4.6875 L 21.984375 -4.6875 L 21.984375 0 L 3.671875 0 L 3.671875 -28.28125 Z M 9.265625 -28.28125 "/></g></g><g style="fill:#000000;fill-opacity:1;"><g transform="translate(91.907617, 59.174137)"><path style="stroke:none" d="M 15.421875 0.40625 C 12.828125 0.40625 10.539062 -0.117188 8.5625 -1.171875 C 6.582031 -2.234375 5.03125 -3.847656 3.90625 -6.015625 C 2.78125 -8.191406 2.21875 -10.898438 2.21875 -14.140625 C 2.21875 -17.378906 2.78125 -20.082031 3.90625 -22.25 C 5.03125 -24.425781 6.582031 -26.039062 8.5625 -27.09375 C 10.539062 -28.15625 12.828125 -28.6875 15.421875 -28.6875 C 18.015625 -28.6875 20.296875 -28.160156 22.265625 -27.109375 C 24.242188 -26.066406 25.789062 -24.453125 26.90625 -22.265625 C 28.019531 -20.085938 28.578125 -17.378906 28.578125 -14.140625 C 28.578125 -10.898438 28.019531 -8.191406 26.90625 -6.015625 C 25.789062 -3.835938 24.242188 -2.222656 22.265625 -1.171875 C 20.296875 -0.117188 18.015625 0.40625 15.421875 0.40625 Z M 15.421875 -4.453125 C 17.816406 -4.453125 19.644531 -5.222656 20.90625 -6.765625 C 22.175781 -8.304688 22.8125 -10.765625 22.8125 -14.140625 C 22.8125 -17.523438 22.175781 -19.988281 20.90625 -21.53125 C 19.644531 -23.082031 17.816406 -23.859375 15.421875 -23.859375 C 13.003906 -23.859375 11.160156 -23.082031 9.890625 -21.53125 C 8.617188 -19.988281 7.984375 -17.523438 7.984375 -14.140625 C 7.984375 -10.765625 8.617188 -8.304688 9.890625 -6.765625 C 11.160156 -5.222656 13.003906 -4.453125 15.421875 -4.453125 Z M 15.421875 -4.453125 "/></g></g><g style="fill:#000000;fill-opacity:1;"><g transform="translate(128.666501, 59.174137)"><path style="stroke:none" d="M 16.8125 0 L 10.0625 0 L 0.5 -28.28125 L 6.4375 -28.28125 L 13.3125 -7.203125 L 13.796875 -7.203125 L 20.5625 -28.28125 L 26.359375 -28.28125 Z M 16.8125 0 "/></g></g><g style="fill:#000000;fill-opacity:1;"><g transform="translate(161.459818, 59.174137)"><path style="stroke:none" d="M 9.265625 -12.421875 L 9.265625 -4.6875 L 22.765625 -4.6875 L 22.765625 0 L 3.671875 0 L 3.671875 -28.28125 L 22.46875 -28.28125 L 22.46875 -23.609375 L 9.265625 -23.609375 L 9.265625 -16.984375 L 20.796875 -16.984375 L 20.796875 -12.421875 Z M 9.265625 -12.421875 "/></g></g><g style="fill:#000000;fill-opacity:1;"><g transform="translate(191.719058, 59.174137)"><path style="stroke:none" d="M 3.671875 0 L 3.671875 -28.28125 L 15.03125 -28.28125 C 17.957031 -28.28125 20.164062 -27.609375 21.65625 -26.265625 C 23.144531 -24.921875 23.890625 -23.0625 23.890625 -20.6875 C 23.890625 -18.96875 23.453125 -17.5625 22.578125 -16.46875 C 21.710938 -15.375 20.414062 -14.535156 18.6875 -13.953125 L 18.6875 -13.546875 C 19.582031 -13.160156 20.300781 -12.585938 20.84375 -11.828125 C 21.394531 -11.066406 21.914062 -9.9375 22.40625 -8.4375 L 25.234375 0 L 19.484375 0 L 16.71875 -8.453125 C 16.4375 -9.304688 16.117188 -9.96875 15.765625 -10.4375 C 15.410156 -10.90625 14.957031 -11.242188 14.40625 -11.453125 C 13.851562 -11.671875 13.140625 -11.78125 12.265625 -11.78125 L 9.265625 -11.78125 L 9.265625 0 Z M 14.359375 -16.21875 C 17.066406 -16.21875 18.421875 -17.476562 18.421875 -20 C 18.421875 -22.570312 17.066406 -23.859375 14.359375 -23.859375 L 9.265625 -23.859375 L 9.265625 -16.21875 Z M 14.359375 -16.21875 "/></g></g><g clip-rule="nonzero" clip-path="url(#0cb9219582)"><g style="fill:#000000;fill-opacity:1;"><g transform="translate(113.4027, 74.053785)"><path style="stroke:none" d="M 9.765625 -12.1875 L 9.765625 -10.171875 L 6.25 -10.171875 L 6.25 0 L 3.859375 0 L 3.859375 -10.171875 L 0.328125 -10.171875 L 0.328125 -12.1875 Z M 9.765625 -12.1875 "/></g></g></g><g clip-rule="nonzero" clip-path="url(#1ea3645add)"><g style="fill:#000000;fill-opacity:1;"><g transform="translate(132.286757, 74.053785)"><path style="stroke:none" d="M 6.640625 0.171875 C 5.523438 0.171875 4.539062 -0.0507812 3.6875 -0.5 C 2.832031 -0.957031 2.160156 -1.65625 1.671875 -2.59375 C 1.191406 -3.53125 0.953125 -4.695312 0.953125 -6.09375 C 0.953125 -7.488281 1.191406 -8.65625 1.671875 -9.59375 C 2.160156 -10.53125 2.832031 -11.222656 3.6875 -11.671875 C 4.539062 -12.128906 5.523438 -12.359375 6.640625 -12.359375 C 7.765625 -12.359375 8.75 -12.128906 9.59375 -11.671875 C 10.445312 -11.222656 11.113281 -10.53125 11.59375 -9.59375 C 12.070312 -8.65625 12.3125 -7.488281 12.3125 -6.09375 C 12.3125 -4.695312 12.070312 -3.53125 11.59375 -2.59375 C 11.113281 -1.65625 10.445312 -0.957031 9.59375 -0.5 C 8.75 -0.0507812 7.765625 0.171875 6.640625 0.171875 Z M 6.640625 -1.921875 C 7.679688 -1.921875 8.472656 -2.25 9.015625 -2.90625 C 9.554688 -3.570312 9.828125 -4.632812 9.828125 -6.09375 C 9.828125 -7.550781 9.554688 -8.613281 9.015625 -9.28125 C 8.472656 -9.945312 7.679688 -10.28125 6.640625 -10.28125 C 5.609375 -10.28125 4.816406 -9.945312 4.265625 -9.28125 C 3.710938 -8.613281 3.4375 -7.550781 3.4375 -6.09375 C 3.4375 -4.632812 3.710938 -3.570312 4.265625 -2.90625 C 4.816406 -2.25 5.609375 -1.921875 6.640625 -1.921875 Z M 6.640625 -1.921875 "/></g></g></g><g clip-rule="nonzero" clip-path="url(#b11867e7e9)"><g style="fill:#000000;fill-opacity:1;"><g transform="translate(154.347475, 74.053785)"><path style="stroke:none" d="M 5.828125 0 L 3.125 0 L 0.328125 -12.1875 L 2.734375 -12.1875 L 4.578125 -3.625 L 4.78125 -3.625 L 6.96875 -12.1875 L 9.03125 -12.1875 L 11.25 -3.625 L 11.46875 -3.625 L 13.3125 -12.1875 L 15.640625 -12.1875 L 12.84375 0 L 10.15625 0 L 8.015625 -7.859375 L 7.84375 -7.859375 Z M 5.828125 0 "/></g></g></g><g clip-rule="nonzero" clip-path="url(#11499ef3ef)"><g style="fill:#000000;fill-opacity:1;"><g transform="translate(179.084593, 74.053785)"><path style="stroke:none" d="M 4 -5.359375 L 4 -2.015625 L 9.8125 -2.015625 L 9.8125 0 L 1.578125 0 L 1.578125 -12.1875 L 9.6875 -12.1875 L 9.6875 -10.171875 L 4 -10.171875 L 4 -7.328125 L 8.96875 -7.328125 L 8.96875 -5.359375 Z M 4 -5.359375 "/></g></g></g><g clip-rule="nonzero" clip-path="url(#b38793639d)"><g style="fill:#000000;fill-opacity:1;"><g transform="translate(198.343846, 74.053785)"><path style="stroke:none" d="M 1.578125 0 L 1.578125 -12.1875 L 6.484375 -12.1875 C 7.742188 -12.1875 8.691406 -11.894531 9.328125 -11.3125 C 9.972656 -10.738281 10.296875 -9.941406 10.296875 -8.921875 C 10.296875 -8.179688 10.109375 -7.570312 9.734375 -7.09375 C 9.359375 -6.625 8.800781 -6.265625 8.0625 -6.015625 L 8.0625 -5.84375 C 8.4375 -5.675781 8.742188 -5.425781 8.984375 -5.09375 C 9.222656 -4.769531 9.445312 -4.285156 9.65625 -3.640625 L 10.875 0 L 8.390625 0 L 7.203125 -3.640625 C 7.078125 -4.003906 6.9375 -4.285156 6.78125 -4.484375 C 6.632812 -4.691406 6.441406 -4.84375 6.203125 -4.9375 C 5.972656 -5.03125 5.664062 -5.078125 5.28125 -5.078125 L 4 -5.078125 L 4 0 Z M 6.1875 -6.984375 C 7.351562 -6.984375 7.9375 -7.53125 7.9375 -8.625 C 7.9375 -9.726562 7.351562 -10.28125 6.1875 -10.28125 L 4 -10.28125 L 4 -6.984375 Z M 6.1875 -6.984375 "/></g></g></g></g></svg>
